Coordinates
version=1
nRows=13
nColumns=36
inDegrees=yes

Units are S.I. units (second, meters, Newtons, ...)
If the header above contains a line with 'inDegrees', this indicates whether rotational values are in degrees (yes) or radians (no).

endheader
time	pelvis_tilt	pelvis_list	pelvis_rotation	pelvis_tx	pelvis_ty	pelvis_tz	hip_flexion_r	hip_adduction_r	hip_rotation_r	knee_angle_r	knee_angle_r_beta	ankle_angle_r	subtalar_angle_r	mtp_angle_r	hip_flexion_l	hip_adduction_l	hip_rotation_l	knee_angle_l	knee_angle_l_beta	ankle_angle_l	subtalar_angle_l	mtp_angle_l	lumbar_extension	lumbar_bending	lumbar_rotation	arm_flex_r	arm_add_r	arm_rot_r	elbow_flex_r	pro_sup_r	arm_flex_l	arm_add_l	arm_rot_l	elbow_flex_l	pro_sup_l
      1.18750000	    -20.55807996	     -1.27045434	     -0.38049903	     -0.86164936	      1.06139688	     -0.08024664	     56.00114978	      6.27809010	      3.85618575	     78.30864058	      1.36674361	     37.42255011	    -23.51191576	     -7.49999987	     52.80897089	      4.57309228	      8.63307423	     79.02534808	      1.37925252	     35.03587501	    -21.77446867	     -7.49999987	    -24.31889699	     -0.86158140	      1.62885173	     17.90581888	    -10.26855941	     46.53142932	     14.36334670	     51.26806391	     14.19535395	    -15.01544924	     40.01810525	      7.67208441	     47.74670818
      1.19166670	    -20.11434895	     -1.45130648	      0.16693283	     -0.85661984	      1.06103732	     -0.07576349	     54.80513058	      6.52334450	      3.55950575	     78.25607697	      1.36582620	     38.33129837	    -23.35519733	     -7.49999987	     51.78821287	      4.35656666	      9.06426078	     78.69538963	      1.37349366	     35.66668734	    -21.62455984	     -7.49999987	    -25.14660147	     -0.52457647	      1.38873889	     18.95978961	    -10.06480222	     46.08398082	     14.90793513	     51.41718521	     16.90195872	    -15.72777909	     40.37766395	      8.73986864	     47.56226704
      1.19583330	    -20.68483316	     -1.54791090	      0.67416636	     -0.85597747	      1.06200978	     -0.07629919	     54.91673207	      6.66238915	      3.27870704	     78.02869095	      1.36185757	     38.81199637	    -23.63846834	     -7.49999987	     52.15618729	      4.23756445	      9.27725649	     78.38947272	      1.36815440	     35.87393287	    -21.70485414	     -7.49999987	    -25.30139027	     -0.74846799	      1.26152140	     21.71333573	    -10.13577815	     45.02975628	     16.83084126	     52.35354262	     19.17735431	    -16.65020760	     39.72938495	     10.09240483	     48.78561412
      1.20000000	    -20.79470114	     -1.59889447	      1.31995458	     -0.85055310	      1.06099760	     -0.08070244	     54.87971853	      6.14028603	      2.78817568	     78.04418103	      1.36212792	     38.97122877	    -24.00662710	     -7.49999987	     52.41635540	      4.40485410	      9.49987905	     78.37666615	      1.36793088	     35.99846221	    -21.22483908	     -7.49999987	    -25.01644817	     -0.66430602	      1.42593021	     22.93336263	    -11.38034115	     42.65866705	     18.64156284	     54.39526138	     21.52727822	    -16.59933374	     42.68455248	     11.06681555	     48.47664185
      1.20416670	    -21.54403731	     -1.54967725	      1.77448243	     -0.85032830	      1.05458344	     -0.08121048	     55.90795640	      5.65200146	      2.46358787	     78.55204865	      1.37099188	     39.52011772	    -23.53840129	     -7.49999987	     53.29365360	      4.77535428	      9.50332338	     78.85012773	      1.37619434	     36.80165534	    -20.46704398	     -7.49999987	    -23.87992324	     -0.49275357	      1.15843219	     24.03583970	    -11.96306481	     40.96992430	     18.85346920	     55.27065424	     22.95573028	    -16.33527460	     41.68790128	     12.32798499	     48.74806417
      1.20833330	    -21.55514298	     -1.79194267	      2.35810591	     -0.84450592	      1.05755947	     -0.07680081	     55.48300854	      5.52074391	      2.04037674	     78.40064267	      1.36834935	     39.98707412	    -23.84475029	     -7.49999987	     53.07250320	      4.78801150	      9.86307603	     79.07072835	      1.38004455	     37.47078551	    -19.44271468	     -7.49999987	    -24.17764640	     -0.15087470	      1.48702945	     24.60389527	    -12.51259153	     36.46470406	     19.78786546	     66.72189768	     25.16462647	    -16.10999712	     46.19569440	     13.06814342	     46.31283442
      1.21250000	    -22.03174394	     -2.04403810	      2.90202458	     -0.84349430	      1.05541707	     -0.07708429	     55.46999108	      5.62337366	      1.83321926	     77.94350730	      1.36037083	     40.66194822	    -23.69065075	     -7.49999987	     53.29791354	      4.76615254	     10.24714211	     78.92628402	      1.37752352	     37.93064122	    -18.76326108	     -7.49999987	    -23.80107899	      0.29234196	      1.23441825	     25.81146141	    -13.18833019	     35.06813925	     20.53125016	     65.79198083	     26.94345051	    -16.40014098	     44.69616640	     14.32024376	     48.08570827
      1.21666670	    -21.91290530	     -2.31808746	      3.09907720	     -0.83750848	      1.05789188	     -0.07222983	     54.84282213	      6.04569383	      1.46601101	     77.49223070	      1.35249457	     41.02272229	    -23.45796290	     -7.49999987	     52.75529928	      4.41759113	     10.72774263	     78.92096850	      1.37743075	     37.94861293	    -18.35965285	     -7.49999987	    -23.97875504	      0.42901122	      1.49339052	     27.63885631	    -14.03593407	     33.97947961	     21.93323116	     66.92357402	     28.64926734	    -16.69613756	     42.69837369	     16.72544974	     48.16480742
      1.22083330	    -22.35393009	     -2.57452470	      3.08820328	     -0.84210167	      1.06190785	     -0.07696619	     55.03873832	      6.22799157	      1.17529394	     76.85786631	      1.34142282	     40.96172934	    -23.48010823	     -7.49999987	     53.26909853	      4.16589892	     10.79064891	     78.97422377	      1.37836023	     37.54905469	    -18.37646948	     -7.49999987	    -24.00671463	      0.83847029	      1.98483441	     30.09667871	    -14.97148008	     33.97699243	     22.40745016	     67.44294259	     31.32171085	    -15.67350569	     41.97775532	     17.91668597	     48.33390005
      1.22500000	    -22.83111503	     -2.53048431	      3.46552765	     -0.83519467	      1.05697831	     -0.07138572	     55.16563333	      6.25584810	      1.26310249	     76.76640713	      1.33982656	     41.27116790	    -23.43626858	     -7.49999987	     53.64063334	      3.97103741	     10.87820888	     78.79407314	      1.37521601	     37.62457034	    -18.28297412	     -7.49999987	    -23.62312814	      0.76724214	      1.72272169	     32.11817789	    -15.60345648	     33.71739364	     22.88793454	     67.48455706	     33.28858645	    -15.48217387	     41.60174716	     18.55028099	     48.39157820
      1.22916670	    -22.38209940	     -2.95737498	      4.30155251	     -0.80349959	      1.05477452	     -0.04913272	     52.72116443	      7.68205174	      1.01412710	     75.69913859	      1.32119921	     42.50144613	    -23.40949928	     -7.49999987	     51.80073727	      2.25332673	     11.30606913	     78.21385767	      1.36508934	     39.37569186	    -15.40426870	     -7.49999987	    -23.71622689	      0.42479946	      1.09195866	     31.55455779	    -14.50187148	     28.16586642	     23.84898093	     78.92281383	     31.28825573	    -16.12394322	     23.24566488	     24.01830735	     59.90200953
      1.23333330	    -23.17714946	     -2.86604475	      4.75856365	     -0.82900628	      1.05868683	     -0.06695127	     53.39842945	      7.57725768	      0.94607941	     75.33364974	      1.31482023	     42.71500866	    -24.50856608	     -7.49999987	     52.72588293	      2.40157241	     10.92441534	     77.93940748	      1.36029928	     39.10912665	    -14.99072717	     -7.49999987	    -22.87939999	      0.16641714	      0.54373735	     32.70416227	    -15.22546252	     27.48286342	     25.03201300	     78.26498973	     33.56542486	    -16.27119687	     22.58048857	     26.01680113	     59.94378485
      1.23750000	    -24.23563687	     -3.07145811	      4.68906022	     -0.82809374	      1.05176570	     -0.06754409	     54.68685068	      7.82079096	      1.27184570	     75.57968751	      1.31911439	     42.80122507	    -24.73259726	     -7.49999987	     54.22320824	      2.09759579	     10.64620999	     78.44679484	      1.36915486	     39.43096253	    -14.33278173	     -7.49999987	    -21.21571185	      0.20773804	      0.10236867	     33.65725273	    -15.26226988	     24.92872327	     27.36350121	     75.95673594	     34.74391923	    -16.40663129	     19.69174670	     28.88361236	     60.04959749
